<svg xmlns="http://www.w3.org/2000/svg" width="1080" height="1350" viewBox="0 0 1080 1350" role="img"><title>Campanha Intervalo com ilustração original de xícara e fundo laranja</title><defs><pattern id="grain" width="11" height="13" patternUnits="userSpaceOnUse"><circle cx="2" cy="3" r=".6" fill="#000" opacity=".06"/><circle cx="8" cy="10" r=".5" fill="#fff" opacity=".15"/></pattern><filter id="shadow" x="-40%" y="-40%" width="180%" height="180%"><feDropShadow dx="9" dy="16" stdDeviation="14" flood-opacity=".17"/></filter></defs><rect x="0" y="0" width="1080" height="1350" rx="0" fill="#ec6337" /><text x="65" y="84" fill="#f4eedc" font-family="Arial, sans-serif" font-size="20" font-weight="400" letter-spacing="3">INTERVALO. / CAFÉ &amp; CONVERSA</text><text x="65" y="240" fill="#f4eedc" font-family="Georgia, serif" font-size="90" font-weight="400" >Seu dia pede</text><text x="65" y="355" fill="#f4eedc" font-family="Georgia, serif" font-size="105" font-weight="400" font-style="italic">uma pausa.</text><g transform="translate(540 802) scale(1.55)"><ellipse cx="0" cy="165" rx="240" ry="45" fill="#2b261f" opacity=".13"/><path d="M-145-85H140L108 150H-105Z" fill="#f4eedc" stroke="#2b261f" stroke-width="5"/><path d="M139-50C270-80 260 115 123 83" fill="none" stroke="#f4eedc" stroke-width="37"/><ellipse cy="-85" rx="142" ry="37" fill="#2b261f" stroke="#f4eedc" stroke-width="15"/><path d="M-115 25H128L114 123H-102Z" fill="#ec6337"/><text x="0" y="88" text-anchor="middle" font-family="Georgia" font-size="33" fill="#2b261f">intervalo.</text><path d="M-50-157C-95-200-10-207-42-260M25-155C-20-199 65-205 34-267" fill="none" stroke="#f4eedc" stroke-width="5" stroke-linecap="round"/></g><text x="65" y="1150" fill="#f4eedc" font-family="Arial, sans-serif" font-size="25" font-weight="700" >CAFÉ BOM. TEMPO BEM GASTO.</text><path d="M65 1240H1015" stroke="#f4eedc"/><text x="65" y="1284" fill="#f4eedc" font-family="Arial, sans-serif" font-size="17" font-weight="400" letter-spacing="2">IDENTIDADE / CAMPANHA DE MARCA</text><rect x="0" y="0" width="1080" height="1350" rx="0" fill="url(#grain)" /></svg>