<svg xmlns="http://www.w3.org/2000/svg" width="1080" height="1350" viewBox="0 0 1080 1350" role="img"><title>Convite Amora com cartão rosa, laço e nomes Marina e Vicente</title><defs><pattern id="grain" width="11" height="13" patternUnits="userSpaceOnUse"><circle cx="2" cy="3" r=".6" fill="#000" opacity=".06"/><circle cx="8" cy="10" r=".5" fill="#fff" opacity=".15"/></pattern><filter id="shadow" x="-40%" y="-40%" width="180%" height="180%"><feDropShadow dx="9" dy="16" stdDeviation="14" flood-opacity=".17"/></filter></defs><rect x="0" y="0" width="1080" height="1350" rx="0" fill="#602639" /><text x="65" y="84" fill="#efddd2" font-family="Arial, sans-serif" font-size="20" font-weight="400" letter-spacing="3">AMORA / CONVITE</text><rect x="160" y="185" width="760" height="930" rx="8" fill="#efddd2" filter="url(#shadow)"/><g transform="translate(540 352) scale(0.85)" fill="none" stroke="#602639" stroke-width="4"><path d="M0 0C-140-110-220-55-170 15C-120 75-30 30 0 0C140-110 220-55 170 15C120 75 30 30 0 0M0 0Q-100 100-50 220M0 0Q100 100 50 220"/></g><text x="540" y="600" fill="#602639" font-family="Georgia, serif" font-size="104" font-weight="400" text-anchor="middle">Marina</text><text x="540" y="682" fill="#602639" font-family="Georgia, serif" font-size="62" font-weight="400" text-anchor="middle" font-style="italic">&amp;</text><text x="540" y="800" fill="#602639" font-family="Georgia, serif" font-size="104" font-weight="400" text-anchor="middle">Vicente</text><text x="540" y="920" fill="#602639" font-family="Arial, sans-serif" font-size="22" font-weight="400" text-anchor="middle" letter-spacing="3">12 · SETEMBRO · 2027</text><text x="540" y="980" fill="#602639" font-family="Arial, sans-serif" font-size="17" font-weight="400" text-anchor="middle" letter-spacing="2">CELEBRAMOS O NOSSO SIM.</text><path d="M65 1240H1015" stroke="#efddd2"/><text x="65" y="1284" fill="#efddd2" font-family="Arial, sans-serif" font-size="17" font-weight="400" letter-spacing="2">PAPELARIA / CASAL E EVENTO FICTÍCIOS</text><rect x="0" y="0" width="1080" height="1350" rx="0" fill="url(#grain)" /></svg>